PathFileType	4	(X/Y/Z)	Kaydara	
DataRate	CameraRate	NumFrames	NumMarkers	Units	OrigDataRate	OrigDataStartFrame	OrigNumFrames	
120.00	120.00	4	72	mm	120.00	33	261	
Frame#	Time	Hips			RightUpLeg			RightLeg			RightFoot			RightFoot_End			LeftUpLeg			LeftLeg			LeftFoot			LeftFoot_End			Spine			Spine1			Spine2			Spine3			Neck			Head			Head_End			RightShoulder			RightArm			RightForeArm			RightHand			RightHandThumb1			RightHandThumb2			RightHandThumb3			RightHandThumb3_End			RightInHandIndex			RightHandIndex1			RightHandIndex2			RightHandIndex3			RightHandIndex3_End			RightInHandMiddle			RightHandMiddle1			RightHandMiddle2			RightHandMiddle3			RightHandMiddle3_End			RightInHandRing			RightHandRing1			RightHandRing2			RightHandRing3			RightHandRing3_End			RightInHandPinky			RightHandPinky1			RightHandPinky2			RightHandPinky3			RightHandPinky3_End			LeftShoulder			LeftArm			LeftForeArm			LeftHand			LeftHandThumb1			LeftHandThumb2			LeftHandThumb3			LeftHandThumb3_End			LeftInHandIndex			LeftHandIndex1			LeftHandIndex2			LeftHandIndex3			LeftHandIndex3_End			LeftInHandMiddle			LeftHandMiddle1			LeftHandMiddle2			LeftHandMiddle3			LeftHandMiddle3_End			LeftInHandRing			LeftHandRing1			LeftHandRing2			LeftHandRing3			LeftHandRing3_End			LeftInHandPinky			LeftHandPinky1			LeftHandPinky2			LeftHandPinky3			LeftHandPinky3_End			
		X1	Y1	Z1	X2	Y2	Z2	X3	Y3	Z3	X4	Y4	Z4	X5	Y5	Z5	X6	Y6	Z6	X7	Y7	Z7	X8	Y8	Z8	X9	Y9	Z9	X10	Y10	Z10	X11	Y11	Z11	X12	Y12	Z12	X13	Y13	Z13	X14	Y14	Z14	X15	Y15	Z15	X16	Y16	Z16	X17	Y17	Z17	X18	Y18	Z18	X19	Y19	Z19	X20	Y20	Z20	X21	Y21	Z21	X22	Y22	Z22	X23	Y23	Z23	X24	Y24	Z24	X25	Y25	Z25	X26	Y26	Z26	X27	Y27	Z27	X28	Y28	Z28	X29	Y29	Z29	X30	Y30	Z30	X31	Y31	Z31	X32	Y32	Z32	X33	Y33	Z33	X34	Y34	Z34	X35	Y35	Z35	X36	Y36	Z36	X37	Y37	Z37	X38	Y38	Z38	X39	Y39	Z39	X40	Y40	Z40	X41	Y41	Z41	X42	Y42	Z42	X43	Y43	Z43	X44	Y44	Z44	X45	Y45	Z45	X46	Y46	Z46	X47	Y47	Z47	X48	Y48	Z48	X49	Y49	Z49	X50	Y50	Z50	X51	Y51	Z51	X52	Y52	Z52	X53	Y53	Z53	X54	Y54	Z54	X55	Y55	Z55	X56	Y56	Z56	X57	Y57	Z57	X58	Y58	Z58	X59	Y59	Z59	X60	Y60	Z60	X61	Y61	Z61	X62	Y62	Z62	X63	Y63	Z63	X64	Y64	Z64	X65	Y65	Z65	X66	Y66	Z66	X67	Y67	Z67	X68	Y68	Z68	X69	Y69	Z69	X70	Y70	Z70	X71	Y71	Z71	X72	Y72	Z72	

33	0.267	6081.203	893.81699	129.612	6150.833210114513	887.1886950149171	67.95616787468275	6054.301858337166	489.75735652636416	-22.15086558652341	6052.760422288755	104.83957957828062	-70.72067615299892	5940.274519128954	29.43200301597745	64.7625800668087	6026.482943325078	875.3921918340031	204.36524304277262	5933.382736236188	481.61801462738237	312.6123694091717	5845.591978719847	56.86391992558908	407.80499201991944	5691.92105398037	-7.264606567741483	314.52760175808453	6015.116352188215	1010.9068125204597	81.15742834137262	5952.188808474522	1068.2570935294425	34.751394687536525	5882.418528660909	1120.9826527706928	-15.805338977510587	5809.823779506281	1159.4697474939414	-67.4125355669126	5731.8094305400555	1202.6274519952478	-120.33878103952887	5659.825506951411	1240.954652517204	-167.13719535096214	5522.833102510504	1322.200583277524	-175.12996666520903	5775.711958920034	1187.5448168001585	-128.731148326325	5828.185166794578	1162.2089047299405	-237.60864592668665	5814.461254750161	899.8730386894633	-232.72343056830573	5858.396807421279	644.1713806365915	-253.88127793968297	5851.104365017889	622.0268631348323	-284.9548290706086	5830.557610299199	594.185017632277	-292.7533644920981	5817.6844288438815	573.1334379121674	-294.3355368251977	5808.180714874604	554.1614062771665	-292.36204131966457	5857.322607477325	613.6177378311961	-275.5804446221084	5853.464090165688	562.5653634502808	-287.6620491779888	5841.478504776583	529.2692111200854	-287.67637183059634	5828.052045120398	515.1095059386832	-285.27582718668936	5812.90862968809	507.80129438304505	-281.663648940276	5860.919386638295	610.9789344698091	-264.2930716397977	5859.104056579446	559.7560159877897	-269.97415387102313	5846.500888346219	523.2434890159939	-268.45076691954813	5830.530515080536	506.0740680085379	-264.81606238242574	5814.071785084747	498.035630188307	-260.50465274136354	5863.6620287184605	610.3737126856994	-256.0727096267476	5864.717449350785	563.8145691015293	-254.21099413013212	5854.22019768238	531.8875469223576	-251.30052706922496	5839.074496850005	515.2718247372479	-246.9540692520256	5823.721864659503	507.6878736631504	-242.50196243362006	5866.123041991798	611.4993206122313	-245.7561611262076	5868.95282541145	569.3264211491296	-237.90200961979573	5861.3025409115035	543.8037923960609	-233.1099219592965	5850.620677565684	531.705184466887	-228.7488903019526	5837.231077630707	524.9991073076532	-224.1197789143496	5739.171123317216	1187.468989863179	-76.51748443935462	5702.839142061603	1133.240806237397	31.492718801616956	5829.975616040196	931.2401041614598	-75.99314086229666	5943.628480809284	726.8411450442384	-189.77595053635022	5947.526835105063	717.3400129619016	-226.7685304160493	5974.833624966384	709.902381350043	-248.8451227024436	5995.549259645071	702.3052794212517	-260.95606588028784	6014.272587294543	693.9037701114072	-268.2608537895301	5952.257490207404	706.5485996176322	-219.49772730506726	5979.18944122412	671.9978731332219	-248.34429678322965	6007.108829880861	654.649564030256	-262.9015237078061	6026.029841913946	652.1896595583776	-269.3431432293164	6042.745413796231	655.7694315029504	-272.9152921191	5956.377814394881	701.494110390198	-209.3560876055991	5984.872492614032	665.0584916071876	-232.00812152003957	6015.805870784165	645.5815391862429	-246.45432209365313	6038.857849068637	642.3515365548105	-253.5355404214212	6057.256837240757	646.1409851304979	-257.10850204659323	5958.524838979836	698.7141326085853	-201.49532902179755	5985.70107124848	663.3820536997349	-215.09065256621903	6013.09677283065	645.9057198665141	-226.17544714852716	6035.562744806497	642.5245372284805	-232.2057637566564	6052.971662802065	645.9617291736259	-235.18610231061757	5960.823530624379	697.2252553240843	-191.28117429568593	5986.91780629759	663.5856104477848	-197.59871030924464	6009.414496393712	648.9656725548364	-204.06499931329765	6026.071785957451	646.1968317975934	-207.29773486485033	6041.6489417076355	649.0674778866467	-209.26690205740414
34	0.275	6081.203	893.81699	129.612	6151.348507624212	887.6494731518904	68.49106861841496	6054.363101612872	490.1575333257073	-20.78626456335181	6052.447683644028	105.10904319088245	-68.39452483234935	5939.917002468952	29.853681295796687	67.16434149702205	6025.91189547491	874.8875588379143	203.8125944906039	5932.479547509332	481.2527502031002	312.26208694767394	5844.1138646085565	57.11137447704413	409.2741920203385	5690.217793644666	-6.295506397361308	315.91308321844394	6015.273801973292	1011.049127437044	81.26834560736684	5952.436129930043	1068.5502486403286	34.91866703538097	5882.76770684482	1121.4537206920456	-15.602096406562769	5810.299627262554	1160.1614683146126	-67.2317230786227	5732.39840611277	1203.5425323067252	-120.152145326904	5660.391080844818	1241.9635029702022	-166.83702719854236	5523.413521781602	1323.2443195853305	-174.726697244201	5776.437788865057	1188.8587161412952	-128.3687108110574	5829.9225897697315	1166.0046503119088	-236.8738656903489	5818.263726517364	904.1041544926546	-236.0610926889079	5866.267733246784	650.1979925073304	-259.796550805105	5859.814353760957	628.7399917457503	-291.15287633904666	5839.84497105649	601.1027842682851	-299.80082166253067	5827.32548991593	580.1311960504584	-302.0055266302468	5818.075251775139	561.1723670827769	-300.5775321184009	5865.960924067626	620.2092282198934	-281.8737902346753	5862.988432024797	569.6172420285809	-294.82918419886323	5851.487072852475	536.4305558219578	-295.6747740274377	5838.259662157255	522.2383342851276	-293.8204824541075	5823.212201165489	514.8353704197393	-290.68030580006456	5869.388983518272	617.3743354300422	-270.65093734923977	5868.346633115362	566.4944611992184	-277.21912283452224	5856.246550449453	530.0737531910769	-276.6087715062064	5840.504180702516	512.8518431271493	-273.6359601865118	5824.144539526901	504.7032832106904	-269.842395645225	5871.99101920122	616.6206527489115	-262.4519713384996	5873.620649982734	570.2454087084479	-261.3983217118515	5863.534797379633	538.3696144997439	-259.28837214344907	5848.594636230567	521.687966781679	-255.58286561306764	5833.328354426874	513.9932247767512	-251.61884949128583	5874.254821990469	617.547440094256	-252.14965524987292	5877.494014222318	575.4269110014521	-245.039372234113	5870.128383018247	549.8995541667679	-240.89215127455282	5859.57477960828	537.7307292684848	-237.00049035384035	5846.249205644073	530.9137729461971	-232.80481765374566	5739.557549281625	1187.8322684589934	-76.53681955768589	5702.380756837277	1131.8875530502664	29.967065572608444	5832.122589347212	933.2049019661846	-79.00413951345388	5948.66699375634	732.0057831186127	-194.28441946095612	5953.232314295694	723.3076012311233	-231.1249386990185	5980.901277716492	716.4269547388536	-252.69910589829166	6001.83894703461	709.1671838315865	-264.5011948999156	6020.721554763132	701.0036454880044	-271.58360859868077	5957.948554681312	712.4303639655104	-224.0351609753139	5985.624690365591	678.6940068506744	-252.870822788727	6013.887876608926	661.7963615816177	-267.16471610059097	6032.893914278451	659.5309188985095	-273.2696635197573	6049.593040667477	663.213828743087	-276.4464833451568	5961.9526095865795	707.2045163934331	-213.9933529935611	5991.110302937696	671.4705541549426	-236.68881991873954	6022.400859770356	652.4599687950843	-250.8605597614959	6045.5467932496595	649.452389592633	-257.54177971013246	6063.923594101491	653.3487648237766	-260.6851861718615	5964.00021807809	704.2837023626321	-206.20626674724315	5991.68937121109	669.4611469663827	-219.91284400655874	6019.376957195434	652.364225240923	-230.77149090207323	6041.9232356195835	649.1832090886228	-236.42291958404383	6059.306401001082	652.7141251858891	-239.00265764799096	5966.149230363197	702.6009541190514	-196.05478664572416	5992.627683694685	669.3127724143344	-202.5226056087263	6015.32553538506	654.9521840859286	-208.82769324927125	6032.025646292132	652.307833962876	-211.7936876589456	6047.5709223811145	655.2491243640555	-213.41352495420855
35	0.283	6081.203	893.81699	129.612	6151.861823562102	888.1137388435479	69.03755814592603	6054.429200854774	490.5578597878203	-19.396806530014615	6052.130479409606	105.38305772026611	-66.04333075061007	5939.561219505244	30.27824748299189	69.59254158730282	6025.3422290116305	874.3793818987067	203.24869120718594	5931.567561731575	480.88648185605456	311.89933017393105	5842.6102114604	57.37378992213974	410.7561118556155	5688.495983344415	-5.3060206435765185	317.2995051959559	6015.432978851313	1011.1908999250659	81.3769464273918	5952.686098350494	1068.8431113260685	35.08306052587755	5883.120650827791	1121.9250879900787	-15.402180775622046	5810.780738982148	1160.8549695202246	-67.05443564660061	5732.993657994674	1204.4605250307472	-119.96898734352979	5660.959764420675	1242.9733128662215	-166.53661151180705	5523.994868405496	1324.2853033524425	-174.3215393465378	5777.167699323786	1190.1800074878363	-128.00217888189215	5831.661318583637	1169.8330174168266	-236.09826286314478	5822.144234660869	908.4297478900509	-239.37109224207123	5874.26396694851	656.4251584305883	-265.68348712525795	5868.654260901122	635.6748914952611	-297.3078880839562	5849.274607509558	608.2605160174688	-306.8058172985168	5837.117870285657	587.3807768404514	-309.63547158026773	5828.129021904981	568.4443403737753	-308.7567181910915	5874.730599491525	627.0219285447365	-288.128872164594	5872.657398371588	576.9171274449528	-301.95517180290057	5861.652448700155	543.8563886171072	-303.6359499527986	5848.631895360181	529.6392904931288	-302.3321838612528	5833.687009692752	522.1461395033132	-299.66878259395423	5877.99080902833	623.9877001095132	-276.97640729354373	5877.734846832071	573.4752517580132	-284.4320555948964	5866.151219541347	537.1638290851889	-284.7398096538344	5850.64631004895	519.898398502251	-282.43442565017375	5834.393019733484	511.6445907918954	-279.16411413817485	5880.45248983539	623.0826012840382	-268.80300897638267	5882.668494257142	576.9106066508575	-268.5612295765289	5873.005750126763	545.1006960935406	-267.25702478869283	5858.280280295193	528.3614720223143	-264.1982369636071	5843.107191176634	520.5603791948328	-260.72759981349367	5882.519180470737	623.806212161104	-258.5201917711663	5886.1789205930945	581.7531981762206	-252.1603527520546	5879.107354008793	556.2318781797715	-248.66342935892806	5868.688702640834	543.9984566286607	-245.24594822883645	5855.433225514999	537.0742840884262	-241.48874538203563	5739.9521292952295	1188.1934454274901	-76.56746933611419	5701.93306427573	1130.5294701271328	28.38955446355481	5834.303644021119	935.2362031875043	-82.03604315357302	5953.759739098834	737.3252582509506	-198.7766638919588	5958.99063631119	729.445608585447	-235.44588806665945	5987.01477799612	723.1279379969747	-256.5021920633016	6008.1700884362945	716.2092816786563	-267.9863415015821	6027.208722478234	708.2865362218934	-274.84023187263307	5963.694768983708	718.483713083147	-228.54119985031548	5992.115141658407	685.5809926606746	-257.3495638556098	6020.718310812538	669.1413918823429	-271.3694777165879	6039.804495224765	667.0705123527847	-277.1314666729041	6056.481446607834	670.8536172521641	-279.90797826776605	5967.583669838362	713.0844936330983	-218.60436066967654	5997.405033683544	678.069893302173	-241.33005258469606	6029.048748783688	659.5333930605779	-255.2164469087607	6052.2828194710155	656.7481984726488	-261.49043545666433	6070.631197036546	660.7482020282245	-264.1990093940049	5969.53269105086	710.0209916167155	-210.8949942697586	5997.736195439006	675.722402685972	-224.70450148553226	6025.712305445788	659.0112484374918	-235.32828240687172	6048.333354777555	656.0301639133721	-240.59425468732232	6065.684940353131	659.6516093452506	-242.76862372245057	5971.532644973161	708.1411876550808	-200.81132931998394	5998.397112499015	675.2159686593914	-207.4249602492932	6021.29365273287	661.1191756625408	-213.56310116824446	6038.032652701629	658.5988336474485	-216.25816122015064	6053.540947827005	661.6077591570436	-217.52478854095116
36	0.292	6081.203	893.81699	129.612	6152.372446857926	888.5809597019577	69.59518202530685	6054.5000890597985	490.9578304425961	-17.983658547023154	6051.809123884879	105.6613771514566	-63.669415573587514	5939.207638568198	30.70524287125292	72.04478888879669	6024.774720414231	873.8682544597307	202.67402348212224	5930.647740663515	480.51968282377555	311.5242938970222	5841.082265432326	57.65125688186105	412.2491000432212	5686.757378608749	-4.29689500024144	318.68498973282396	6015.593689459969	1011.3319129937981	81.48301099517015	5952.938424093766	1069.1352585862187	35.24424667598207	5883.476967211312	1122.3960976980359	-15.206002175979325	5811.266598005932	1161.549325887533	-66.88108215280813	5733.594550803156	1205.380221159156	-119.78974863761877	5661.5308745591055	1243.9826748184494	-166.23646497723328	5524.57634740389	1325.3219192880886	-173.91511512709894	5777.9008186952715	1191.5070571681572	-127.63202852788835	5833.399093488173	1173.6895930723242	-235.2818730178825	5826.099768578897	912.84642153244	-242.64807168109436	5882.378099118594	662.8501079367552	-271.5334807217856	5877.615646481975	642.8284615632335	-303.4104387326881	5858.837598122965	615.6554209276582	-313.75779555681873	5847.052390667301	594.8796675955047	-317.21404991036377	5838.332697505435	575.9751011706246	-316.8876573924512	5883.623330266369	634.0528891927781	-294.336290165633	5882.461811760885	584.4622444497487	-309.0293706269212	5871.965098938842	551.5443147411595	-311.54826361586174	5859.159133114592	537.3102927894531	-310.7986842264491	5844.3234753937295	529.7318304866658	-308.6163310932529	5886.716813211583	630.81625967558	-283.2601758590817	5887.259932395993	580.6958866102243	-291.6024872145109	5876.205778493948	544.5116544411366	-292.83234743698796	5860.947709170328	527.2120608196368	-291.1991953140638	5844.808075021652	518.8582250073528	-288.4570003386407	5889.038589854197	629.7569105529284	-275.1166166770517	5891.8526566801775	583.8078539228002	-275.68956303819556	5882.624462367743	552.0788888902048	-275.1954171090914	5868.122781866983	535.2908254171102	-272.78842155132435	5853.049778118325	527.3881526020411	-269.8159444156342	5890.90853911356	630.2731407420459	-264.85870613159193	5894.999690992966	588.3031835392703	-259.255107171145	5888.231447947497	562.7990261338084	-256.4132139727949	5877.954431728672	550.5069282942433	-253.47423156249315	5864.775184272786	543.4795053534306	-250.16008960398023	5740.354539037108	1188.55193673105	-76.60978963728228	5701.4968783315035	1129.168260513018	26.760856146120407	5836.516575826713	937.3330434268677	-85.08537435318132	5958.901097213674	742.7966491368895	-203.24609531155505	5964.795229254368	735.7504010930579	-239.72446730993613	5993.166891174511	730.001047018659	-260.2477296048001	6014.535041833291	723.4268980813691	-271.4050250590841	6033.726155119198	715.7474947041189	-278.0243771028587	5969.4896402967315	724.7051727797674	-233.00879875354752	5998.653288287591	692.6547290408108	-261.7730398214467	6027.592067641786	676.6801016305221	-275.50839490090186	6046.7532885742985	674.8035955640078	-280.92142480520437	6063.402221945052	678.6837048973044	-283.2930504080926	5973.264691897661	719.1307576757699	-223.18207140953646	6003.749495070228	684.852715379371	-245.92435913542408	6035.741767601987	666.7975523857892	-259.51459838320795	6059.0578920911785	664.2343654329346	-265.374468557667	6077.371492867263	668.334434181632	-267.64337243939025	5975.11611310211	715.9228664447039	-215.55448377042012	6003.834738241746	682.1623624790252	-229.45821823332864	6032.095536504503	665.8429534223187	-239.83848388707545	6054.785581397412	663.0612545900653	-244.71276690064047	6072.0996571434725	666.7697927195627	-246.4774127809331	5976.967852273371	713.8430102211282	-205.54383096838015	6004.219696756301	681.2920731765845	-212.29847689561674	6027.312122329576	667.4632646626033	-218.2639880046712	6044.085928600718	665.0662434804252	-220.68416867478743	6059.552064432202	668.1395934313111	-221.59407500124072
